General
Format                                   : MPEG-4
Format profile                           : Base Media
Codec ID                                 : isom
File size                                : 49.1 MiB
Duration                                 : 26mn 32s
Overall bit rate mode                    : Variable
Overall bit rate                         : 259 Kbps
Writing application                      : Lavf52.64.2

Video
ID                                       : 1
Format                                   : AVC
Format/Info                              : Advanced Video Codec
Format profile                           : High@L2.2
Format settings, CABAC                   : Yes
Format settings, ReFrames                : 4 frames
Codec ID                                 : avc1
Codec ID/Info                            : Advanced Video Coding
Duration                                 : 26mn 32s
Bit rate                                 : 190 Kbps
Width                                    : 526 pixels
Height                                   : 394 pixels
Display aspect ratio                     : 4:3
Frame rate mode                          : Constant
Frame rate                               : 20.000 fps
Color space                              : YUV
Chroma subsampling                       : 4:2:0
Bit depth                                : 8 bits
Scan type                                : Progressive
Bits/(Pixel*Frame)                       : 0.046
Stream size                              : 36.1 MiB (73%)
Writing library                          : x264 core 107
Encoding settings                        : cabac=1 / ref=4 / deblock=1:0:0 / analyse=0x3:0x33 / me=umh / subme=8 / psy=1 / psy_rd=1.00:0.00 / mixed_ref=1 / me_range=16 / chroma_me=1 / trellis=0 / 8x8dct=1 / cqm=0 / deadzone=21,11 / fast_pskip=1 / chroma_qp_offset=-2 / threads=6 / sliced_threads=0 / nr=0 / decimate=1 / interlaced=0 / constrained_intra=0 / bframes=16 / b_pyramid=0 / b_adapt=1 / b_bias=0 / direct=1 / weightb=0 / open_gop=0 / weightp=2 / keyint=250 / keyint_min=25 / scenecut=40 / intra_refresh=0 / rc_lookahead=40 / rc=crf / mbtree=1 / crf=25.0 / qcomp=0.60 / qpmin=10 / qpmax=51 / qpstep=4 / ip_ratio=1.41 / aq=1:1.00

Audio
ID                                       : 2
Format                                   : AAC
Format/Info                              : Advanced Audio Codec
Format profile                           : LC
Codec ID                                 : 40
Duration                                 : 26mn 32s
Bit rate mode                            : Variable
Bit rate                                 : 64.0 Kbps
Channel(s)                               : 2 channels
Channel positions                        : Front: L R
Sampling rate                            : 44.1 KHz
Compression mode                         : Lossy
Delay relative to video                  : 50ms
Stream size                              : 12.1 MiB (25%)


** GREEK **
Kali proboli kai kan te SEED! :)

More: https://thepiratebay.se/user/GaySubsGR